<svg version="1.2" xmlns="http://www.w3.org/2000/svg" viewBox="0 0 1667 208" width="1667" height="208"><defs><clipPath clipPathUnits="userSpaceOnUse" id="cp1"><path d="m-68-66h1804v340h-1804z"/></clipPath></defs><style>.a{fill:#e4e6ee}.b{fill:#004a8d}.c{fill:#fff}.d{fill:#1d5eff}.e{fill:#f7941d}.f{fill:#f6be00}.g{fill:#002140}.h{fill:#666d73}.i{fill:#c79633}.j{fill:#f5bf00}.k{fill:#f29100}.l{fill:#fac482}.m{fill:#c89633}</style><g clip-path="url(#cp1)"><path fill-rule="evenodd" class="a" d="m291.2 149.8c-5.7-4.2-9.4-10.9-9.4-18.5 0-12.8 10.3-23.1 23.1-23.1q0.1-1.5 0.1-3.1c0-4.4-0.4-8.7-1.1-12.9-21.1 0.5-38.1 17.8-38.1 39.1 0 12.5 5.9 23.6 15.1 30.8 3.8-3.7 7.3-7.8 10.3-12.3zm-17.3-72.1c8.6 0 16.5-2.8 23-7.5-2.4-4.9-5.2-9.4-8.5-13.6-4 3.2-9 5.1-14.6 5.1-12.7 0-23.1-10.3-23.1-23.1 0-2.9 0.6-5.8 1.7-8.4q-7.5-2.7-15.7-3.9c-1.2 3.9-1.9 8-1.9 12.3 0 21.6 17.5 39.1 39.1 39.1zm-57.8-39.1c0-4.3-0.7-8.4-2-12.3-5.4 0.8-10.6 2.1-15.6 3.8 1 2.7 1.6 5.5 1.6 8.5 0 12.8-10.4 23.1-23.1 23.1-5.6 0-10.7-2-14.7-5.3-3.3 4.2-6.2 8.8-8.6 13.6 6.6 4.9 14.6 7.7 23.3 7.7 21.6 0 39.1-17.5 39.1-39.1z"/><path fill-rule="evenodd" class="a" d="m169.7 162.2c-3.8-3.8-7.3-7.9-10.3-12.3 5.9-4.2 9.7-11 9.7-18.8 0-12.7-10.4-23-23.1-23q-0.2 0-0.3 0-0.1-1.5-0.1-3c0-4.4 0.4-8.8 1.1-13 21.2 0.4 38.4 17.7 38.4 39 0 12.7-6 23.9-15.4 31.1zm92.2 13.6c-4.7 2.4-9.7 4.4-14.9 5.9-3-9.2-11.7-15.9-21.9-15.9-10.2 0-18.9 6.6-21.9 15.8-5.2-1.5-10.2-3.5-14.9-6 5.5-15 19.9-25.8 36.8-25.8 16.9 0 31.4 10.9 36.8 26z"/><path class="b" d="m180.3 128.2c-7-3.7-7.7-10.1-7.7-15.5 0.6-2.1 0.9-4.2 0.9-6.5 0-13.9-11.3-25.1-25.2-25.1h-122.3c-13.9 0-25.1 11.2-25.1 25.1 0 13.9 11.2 25.2 25.1 25.2h122.3c6.3 0 12.1-2.3 16.5-6.2 6.5 5.8 15.5 3 15.5 3z"/><path fill-rule="evenodd" class="c" d="m29.3 98.8q-0.5 0.7-0.5 1.5 0 1 0.6 1.7 0.6 0.7 1.8 1l5.1 1.7q3.2 1 4.8 2.9 1.6 1.8 1.6 4.5 0 2.3-1.3 4.1-1.2 1.8-3.3 2.8-2.1 1-4.9 1-2.5 0-4.7-0.9-2.2-0.9-3.7-2.6-1.6-1.7-2.4-3.9l4.5-2.1q1 2.2 2.8 3.5 1.7 1.2 3.9 1.2 1.1 0 1.9-0.4 0.8-0.3 1.3-0.9 0.5-0.7 0.5-1.5 0-0.9-0.6-1.6-0.6-0.6-1.8-1l-5.2-1.7q-3.1-1.1-4.7-3-1.6-1.9-1.6-4.5 0-2.4 1.1-4.2 1.2-1.7 3.2-2.7 2.1-1 4.8-1 2.4 0 4.4 0.8 2.1 0.8 3.5 2.3 1.5 1.5 2.3 3.6l-4.5 2q-0.8-1.8-2.3-2.9-1.5-1-3.4-1-1.1 0-1.9 0.3-0.9 0.4-1.3 1zm33.4 6.8q0.6 1.7 0.6 3.7 0 0.6 0 1.1-0.1 0.6-0.2 1h-13.6q0.1 0.7 0.4 1.3 0.5 1.3 1.6 2 1.1 0.7 2.7 0.7 1.4 0 2.4-0.6 1-0.6 1.6-1.6l4.2 2.1q-0.5 1.4-1.8 2.5-1.2 1-2.8 1.6-1.7 0.6-3.7 0.6-3.1 0-5.4-1.4-2.2-1.3-3.5-3.7-1.2-2.3-1.2-5.1 0-2.9 1.3-5.2 1.3-2.2 3.5-3.5 2.2-1.4 4.9-1.4 2.3 0 4.1 0.8 1.8 0.7 3 2 1.2 1.3 1.9 3.1zm-12.8 1.1q-0.2 0.3-0.3 0.8h8.1q-0.1-0.5-0.2-0.9-0.4-1.2-1.4-1.9-0.9-0.7-2.4-0.7-1.4 0-2.3 0.7-1 0.7-1.5 2zm43.7-3.5q0.9 1.7 0.9 3.9v12.5h-5.3v-11.4q0-1.1-0.4-1.9-0.4-0.8-1.2-1.3-0.7-0.5-1.8-0.5-1 0-1.8 0.5-0.7 0.5-1.2 1.3-0.4 0.8-0.4 1.9v11.4h-5.3v-11.4q0-1.1-0.4-1.9-0.4-0.8-1.2-1.3-0.7-0.5-1.8-0.5-1 0-1.8 0.5-0.7 0.5-1.1 1.3-0.4 0.8-0.4 1.9v11.4h-5.4v-19.4h5v2.3q0.6-1 1.5-1.7 1.7-1.1 3.9-1.1 2.5 0 4.3 1.3 1.1 0.7 1.7 1.7 0.7-1.1 1.8-1.8 1.8-1.2 4.1-1.2 2.1 0 3.8 1 1.6 0.9 2.5 2.5zm18.8-0.1q1 1.6 1 3.7v12.8h-5v-1.9q-0.3 0.4-0.6 0.6-1.1 0.9-2.3 1.3-1.3 0.4-2.9 0.4-2.1 0-3.6-0.7-1.5-0.7-2.4-1.9-0.8-1.3-0.8-3 0-1.7 0.8-2.9 0.7-1.3 2.3-2.1 1.5-0.9 3.8-1.2l5.4-0.9v-0.5q0-1.1-0.9-1.9-0.9-0.7-2.3-0.7-1.5 0-2.5 0.8-1.1 0.7-1.6 2l-4.3-2q0.6-1.6 1.8-2.8 1.3-1.2 3-1.8 1.7-0.7 3.8-0.7 2.5 0 4.3 0.9 1.9 0.9 3 2.5zm-4.3 8.7v-0.6l-4.4 0.8q-1.2 0.2-1.8 0.7-0.6 0.5-0.6 1.5 0 0.9 0.7 1.4 0.7 0.5 1.7 0.5 1.3 0 2.3-0.6 1-0.6 1.5-1.5 0.6-1 0.6-2.2zm24.6-8.6q1 1.7 1 3.9v12.5h-5.4v-11.4q0-1.1-0.4-1.9-0.4-0.8-1.2-1.3-0.8-0.5-1.9-0.5-1 0-1.9 0.5-0.8 0.5-1.2 1.3-0.5 0.8-0.5 1.9v11.4h-5.3v-19.4h5v2.4q0.6-1.3 1.9-2 1.5-0.9 3.5-0.9 2.2 0 3.9 1 1.6 0.9 2.5 2.5zm19.9 3.6v12.8h-5v-1.9q-0.3 0.4-0.7 0.6-1 0.9-2.3 1.3-1.3 0.4-2.8 0.4-2.1 0-3.7-0.7-1.5-0.7-2.3-1.9-0.8-1.3-0.8-3 0-1.7 0.7-2.9 0.8-1.3 2.3-2.1 1.6-0.9 3.9-1.2l5.3-0.9v-0.5q0-1.1-0.8-1.9-0.9-0.7-2.4-0.7-1.4 0-2.5 0.8-1.1 0.7-1.6 2l-4.2-2q0.5-1.6 1.8-2.8 1.2-1.2 3-1.8 1.7-0.7 3.8-0.7 2.4 0 4.3 0.9 1.9 0.9 2.9 2.5 1.1 1.6 1.1 3.7zm-5.4 5v-0.6l-4.4 0.8q-1.1 0.2-1.7 0.7-0.6 0.5-0.6 1.5 0 0.9 0.7 1.4 0.6 0.5 1.6 0.5 1.3 0 2.3-0.6 1-0.6 1.6-1.5 0.5-1 0.5-2.2z"/><path class="d" d="m209.4 107.7q2.4 1.4 5.3 2.4 4.2 1.4 9.5 2.6 4.4 1 6.9 1.9 2.5 0.9 3.9 1.8 1.3 1 1.6 2 0.4 1 0.4 2.4v0.2q0 1.7-1 2.9c9.4 0.6 12.8-5.8 13.9-13.2q-1.4-2.1-3.5-3.8-2.8-2.2-6.9-3.8-4.1-1.6-9.3-2.8-2.7-0.7-4.8-1.2c-3.4 2.4-9 6-16 8.6z"/><path class="e" d="m201.2 93v0.2q0 4.8 1.6 8 1.6 3.1 4.7 5.3 0.9 0.6 1.9 1.2c7-2.6 12.6-6.2 16-8.6q-1.4-0.4-2.5-0.7-2.7-0.9-4.1-1.7-1.5-0.9-1.9-2-0.5-1.1-0.5-2.8v-0.1q0-2.4 2.3-3.9 1.3-1 3.5-1.4c-0.5-3.5-3.6-9.4-10.9-9.4q-1.8 0.9-3.3 2.1-3.2 2.4-5 6-1.8 3.5-1.8 7.8z"/><path class="f" d="m231.7 74.5q-3-0.6-6.1-0.6-5.4 0-9.9 1.4-2.4 0.7-4.4 1.8 0 0 0 0c7.3 0 10.4 5.9 10.9 9.4q1.4-0.2 3.1-0.2 3.1 0 6.2 0.9 3.2 0.9 5.3 1.7v-13.3q-2-0.4-5.1-1.1z"/><path class="g" d="m218.5 125.6q-1-0.3-1.9-0.7-4.5-2.1-9.2-5.6l-9.1 9.8q7.7 6.3 16.6 8.7c-1-4.3 0.5-8.6 3.6-12.2z"/><path class="b" d="m250.7 112.2q-0.3-0.7-0.8-1.4c-1.1 7.3-4.5 13.7-13.9 13.1q-0.6 0.8-1.6 1.4-2.6 1.6-7.5 1.6-4.6 0-8.4-1.3c-3.1 3.6-4.6 7.9-3.6 12.2q0 0 0 0 0 0 0 0 5.6 1.5 11.7 1.5 5.7 0 10.4-1.3 4.6-1.3 8-3.9 3.4-2.5 5.3-6.1 1.9-3.6 1.9-8.4v-0.2q0-4.1-1.5-7.2z"/><path fill-rule="evenodd" class="h" d="m28.2 139.5h1.6v9.3h-1.5v-0.7q-0.3 0.3-0.8 0.6-0.6 0.3-1.3 0.3-1 0-1.7-0.5-0.8-0.5-1.2-1.3-0.5-0.8-0.5-1.7 0-1 0.5-1.8 0.4-0.8 1.2-1.2 0.7-0.5 1.7-0.5 0.7 0 1.3 0.3 0.4 0.2 0.7 0.5zm0 6q0-0.6-0.2-1.1-0.3-0.4-0.7-0.7-0.4-0.2-0.9-0.2-0.6 0-1 0.2-0.4 0.3-0.7 0.7-0.2 0.5-0.2 1.1 0 0.5 0.2 1 0.3 0.5 0.7 0.7 0.4 0.3 1 0.3 0.5 0 0.9-0.3 0.4-0.2 0.7-0.7 0.2-0.5 0.2-1zm9.4-1.8q0.5 0.7 0.5 1.8 0 1-0.5 1.7-0.5 0.8-1.3 1.3-0.8 0.4-1.7 0.4-1 0-1.8-0.4-0.8-0.5-1.3-1.3-0.5-0.7-0.5-1.7 0-1 0.5-1.8 0.5-0.8 1.3-1.3 0.8-0.4 1.8-0.4 0.9 0 1.7 0.4 0.8 0.5 1.3 1.3zm-1.2 1.8q0-0.6-0.2-1.1-0.3-0.4-0.7-0.7-0.4-0.2-0.9-0.2-0.6 0-1 0.2-0.4 0.3-0.7 0.7-0.2 0.5-0.2 1.1 0 0.5 0.2 1 0.3 0.5 0.7 0.7 0.4 0.3 1 0.3 0.5 0 0.9-0.3 0.4-0.2 0.7-0.7 0.2-0.5 0.2-1zm7-2.9q-0.4 0.7-0.4 1.6 0 1 0.4 1.7 0.3 0.7 1 1.1 0.6 0.4 1.5 0.4 0.8 0 1.5-0.4 0.6-0.5 0.8-1.2l1.5 0.7q-0.2 0.7-0.7 1.2-0.6 0.6-1.4 0.9-0.7 0.3-1.7 0.3-1 0-1.8-0.3-0.8-0.4-1.5-1-0.6-0.6-0.9-1.5-0.4-0.9-0.4-1.9 0-1 0.4-1.9 0.3-0.8 0.9-1.4 0.6-0.7 1.5-1 0.8-0.4 1.8-0.4 1 0 1.7 0.4 0.8 0.3 1.4 0.8 0.5 0.6 0.7 1.2l-1.5 0.7q-0.2-0.7-0.8-1.1-0.7-0.5-1.5-0.5-0.9 0-1.5 0.4-0.7 0.5-1 1.2zm10.7 6.3q-1 0-1.8-0.4-0.8-0.5-1.3-1.3-0.5-0.7-0.5-1.7 0-1 0.5-1.8 0.5-0.8 1.3-1.3 0.8-0.4 1.8-0.4 0.9 0 1.7 0.4 0.8 0.5 1.3 1.3 0.5 0.7 0.5 1.8 0 1-0.5 1.7-0.5 0.8-1.3 1.3-0.8 0.4-1.7 0.4zm-1-1.7q0.4 0.3 1 0.3 0.5 0 0.9-0.3 0.4-0.2 0.7-0.7 0.2-0.5 0.2-1 0-0.6-0.2-1.1-0.3-0.4-0.7-0.7-0.4-0.2-0.9-0.2-0.6 0-1 0.2-0.4 0.3-0.7 0.7-0.2 0.5-0.2 1.1 0 0.5 0.2 1 0.3 0.5 0.7 0.7zm7.3 1.6h-1.6v-6.7h1.5v0.9q0.2-0.4 0.6-0.7 0.5-0.3 1.3-0.3 0.8 0 1.4 0.4 0.4 0.3 0.6 0.7 0.3-0.5 0.7-0.7 0.6-0.4 1.4-0.4 0.7 0 1.2 0.3 0.6 0.3 0.9 0.9 0.3 0.6 0.3 1.3v4.3h-1.6v-3.9q0-0.5-0.1-0.8-0.2-0.3-0.5-0.5-0.2-0.1-0.6-0.1-0.4 0-0.7 0.1-0.3 0.2-0.5 0.5-0.1 0.3-0.1 0.8v3.9h-1.6v-3.9q0-0.5-0.2-0.8-0.2-0.3-0.4-0.5-0.3-0.1-0.7-0.1-0.4 0-0.7 0.1-0.3 0.2-0.4 0.5-0.2 0.3-0.2 0.8zm15.8-4.8q0.2 0.6 0.2 1.2 0 0.2 0 0.4-0.1 0.2-0.1 0.3h-4.8q0 0.4 0.2 0.6 0.2 0.5 0.6 0.8 0.4 0.2 1 0.2 0.5 0 0.9-0.2 0.4-0.2 0.6-0.6l1.3 0.6q-0.2 0.5-0.6 0.8-0.4 0.4-1 0.6-0.6 0.2-1.2 0.2-1.1 0-1.8-0.4-0.8-0.5-1.2-1.3-0.5-0.8-0.5-1.8 0-1 0.5-1.7 0.4-0.8 1.1-1.3 0.8-0.4 1.7-0.4 0.8 0 1.4 0.2 0.6 0.3 1 0.7 0.4 0.5 0.7 1.1zm-4.6 0.3q0 0.2-0.1 0.4h3.2q-0.1-0.2-0.1-0.4-0.2-0.5-0.6-0.7-0.3-0.3-0.9-0.3-0.5 0-0.9 0.3-0.4 0.2-0.6 0.7z"/><path fill-rule="evenodd" class="h" d="m73.9 141h-1.6l0.8-2.1h2.1zm5.3 7.8h-1.6v-6.7h1.5v1q0.2-0.5 0.6-0.7 0.5-0.3 1.2-0.3h0.4v1.4h-0.6q-0.7 0-1.1 0.4-0.4 0.4-0.4 1.2zm7.5-0.1q-0.6 0.2-1.3 0.2-1 0-1.8-0.4-0.8-0.5-1.3-1.3-0.4-0.8-0.4-1.8 0-1 0.4-1.7 0.5-0.8 1.3-1.3 0.8-0.4 1.8-0.4 0.7 0 1.3 0.2 0.6 0.3 1 0.7 0.5 0.4 0.7 1l-1.4 0.7q-0.2-0.5-0.6-0.8-0.5-0.4-1-0.4-0.6 0-1 0.3-0.4 0.3-0.6 0.7-0.2 0.5-0.2 1.1 0 0.5 0.2 1 0.2 0.4 0.6 0.7 0.4 0.3 1 0.3 0.5 0 1-0.3 0.4-0.4 0.6-0.9l1.4 0.7q-0.2 0.5-0.6 1-0.5 0.4-1.1 0.7zm4.5 0.1h-1.6v-6.7h1.6z"/><path fill-rule="evenodd" class="h" d="m91.2 141.4h-1.6v-1.7h1.6zm7.8 2.3q0.5 0.7 0.5 1.8 0 1-0.5 1.8-0.5 0.7-1.3 1.2-0.8 0.4-1.8 0.4-0.9 0-1.7-0.4-0.8-0.5-1.3-1.2-0.5-0.8-0.5-1.8 0-1 0.5-1.8 0.5-0.8 1.3-1.3 0.7-0.4 1.7-0.4 1 0 1.8 0.4 0.8 0.5 1.3 1.3zm-1.2 1.8q0-0.6-0.3-1.1-0.2-0.4-0.6-0.7-0.4-0.2-1-0.2-0.5 0-0.9 0.2-0.4 0.3-0.7 0.7-0.2 0.5-0.2 1.1 0 0.5 0.2 1 0.3 0.5 0.7 0.7 0.4 0.3 0.9 0.3 0.6 0 1-0.3 0.4-0.2 0.6-0.7 0.3-0.5 0.3-1zm9.5 3.2q-0.6 0.2-1.4 0.2-0.9 0-1.7-0.4-0.7-0.5-1.2-1.3-0.4-0.8-0.4-1.7 0-1 0.4-1.8 0.5-0.8 1.2-1.2 0.8-0.5 1.7-0.5 0.8 0 1.4 0.3 0.4 0.2 0.7 0.5v-3.3h1.6v9.3h-1.5v-0.7q-0.4 0.3-0.8 0.6zm0.4-2.2q0.3-0.4 0.3-1 0-0.6-0.3-1.1-0.2-0.4-0.6-0.7-0.4-0.2-1-0.2-0.5 0-1 0.2-0.4 0.3-0.6 0.7-0.3 0.5-0.3 1.1 0 0.6 0.3 1 0.2 0.5 0.6 0.7 0.5 0.3 1 0.3 0.6 0 1-0.3 0.4-0.2 0.6-0.7zm3.5 0.7q-0.4-0.8-0.4-1.7 0-1.1 0.4-1.8 0.5-0.8 1.2-1.3 0.8-0.4 1.7-0.4 0.8 0 1.4 0.2 0.6 0.3 1 0.8 0.4 0.4 0.6 1 0.2 0.6 0.2 1.2 0 0.2 0 0.4 0 0.2 0 0.3h-4.8q0 0.4 0.1 0.6 0.2 0.5 0.7 0.8 0.4 0.2 0.9 0.2 0.6 0 1-0.2 0.4-0.2 0.6-0.6l1.3 0.6q-0.2 0.5-0.6 0.9-0.5 0.3-1 0.5-0.6 0.2-1.3 0.2-1 0-1.8-0.4-0.7-0.5-1.2-1.3zm1.4-2.9q-0.1 0.2-0.1 0.4h3.1q0-0.2-0.1-0.4-0.1-0.5-0.5-0.7-0.4-0.3-0.9-0.3-0.5 0-0.9 0.3-0.4 0.2-0.6 0.7zm14.5 3.8q-0.9 0.7-2.4 0.7h-3.8v-9.1h3.8q0.9 0 1.6 0.3 0.6 0.3 0.9 0.9 0.4 0.5 0.4 1.3 0 0.7-0.3 1.2-0.2 0.3-0.4 0.5 0.2 0.1 0.4 0.3 0.3 0.4 0.5 0.8 0.2 0.5 0.2 1 0 1.3-0.9 2.1zm-4.6-4.9h2.3q0.5 0 0.8-0.3 0.3-0.3 0.3-0.8 0-0.4-0.3-0.7-0.3-0.3-0.8-0.3h-2.3zm3.8 2.8q0-0.6-0.4-1-0.4-0.3-1-0.3h-2.4v2.6h2.4q0.6 0 1-0.4 0.4-0.3 0.4-0.9zm8.9-2q0.3 0.6 0.3 1.2 0 0.2-0.1 0.4 0 0.2 0 0.3h-4.8q0 0.3 0.1 0.6 0.3 0.5 0.7 0.8 0.4 0.2 1 0.2 0.5 0 0.9-0.2 0.4-0.2 0.6-0.6l1.3 0.6q-0.2 0.5-0.6 0.8-0.4 0.4-1 0.6-0.6 0.2-1.3 0.2-1 0-1.8-0.4-0.7-0.5-1.2-1.3-0.4-0.8-0.4-1.8 0-1 0.5-1.7 0.4-0.8 1.1-1.3 0.8-0.4 1.7-0.4 0.8 0 1.4 0.2 0.6 0.3 1 0.7 0.4 0.5 0.6 1.1zm-4.5 0.3q0 0.2-0.1 0.4h3.2q-0.1-0.2-0.1-0.4-0.2-0.5-0.6-0.7-0.4-0.3-0.9-0.3-0.5 0-0.9 0.2-0.4 0.3-0.6 0.8zm11.6-1.1q0.3 0.5 0.3 1.3v4.3h-1.6v-3.9q0-0.5-0.2-0.8-0.2-0.3-0.5-0.5-0.3-0.2-0.7-0.2-0.4 0-0.7 0.2-0.3 0.2-0.4 0.5-0.2 0.3-0.2 0.8v3.9h-1.6v-6.7h1.5v0.8q0.2-0.4 0.6-0.6 0.6-0.3 1.3-0.3 0.7 0 1.3 0.3 0.5 0.3 0.9 0.9zm3.1 0.7q0 0.2 0.1 0.4 0.1 0.1 0.3 0.2 0.2 0.1 0.4 0.1l1.1 0.4q0.8 0.2 1.2 0.7 0.5 0.5 0.5 1.2 0 0.6-0.3 1.1-0.4 0.4-0.9 0.7-0.6 0.2-1.3 0.2-1.1 0-1.9-0.5-0.8-0.5-1.1-1.4l1.2-0.5q0.3 0.5 0.7 0.8 0.5 0.4 1.1 0.4 0.4 0 0.7-0.2 0.2-0.2 0.2-0.5 0-0.2-0.1-0.4-0.1-0.1-0.3-0.2-0.1-0.1-0.4-0.1l-1-0.3q-0.9-0.3-1.3-0.8-0.5-0.5-0.5-1.2 0-0.6 0.4-1.1 0.3-0.4 0.8-0.7 0.6-0.2 1.3-0.2 0.9 0 1.7 0.4 0.7 0.5 1 1.3l-1.2 0.6q-0.2-0.5-0.6-0.7-0.4-0.3-0.9-0.3-0.4 0-0.6 0.2-0.3 0.2-0.3 0.4zm7.2 3.2v1q0 1.1-0.5 1.7-0.4 0.7-1.4 0.9v-0.8q0.4-0.1 0.7-0.4 0.2-0.3 0.3-0.7h-0.7v-1.7zm-123.5 12.3q0.5 0.6 0.5 1.5 0 0.8-0.4 1.4-0.4 0.6-1.1 1-0.7 0.3-1.6 0.3-0.9 0-1.6-0.3-0.8-0.3-1.3-0.9-0.6-0.6-0.8-1.3l1.4-0.6q0.3 0.8 0.9 1.2 0.7 0.5 1.4 0.5 0.5 0 0.8-0.2 0.3-0.1 0.5-0.4 0.2-0.2 0.2-0.6 0-0.4-0.2-0.6-0.3-0.3-0.8-0.4l-1.7-0.6q-1.1-0.3-1.6-1-0.6-0.7-0.6-1.5 0-0.8 0.4-1.4 0.4-0.6 1.1-1 0.7-0.3 1.6-0.3 0.8 0 1.5 0.3 0.7 0.3 1.2 0.8 0.5 0.5 0.7 1.2l-1.4 0.6q-0.2-0.7-0.8-1.1-0.5-0.3-1.2-0.3-0.4 0-0.7 0.1-0.4 0.1-0.5 0.4-0.2 0.2-0.2 0.6 0 0.4 0.2 0.6 0.3 0.3 0.8 0.5l1.7 0.5q1 0.4 1.6 1z"/><path fill-rule="evenodd" class="h" d="m37.1 158.7q0.2 0.6 0.2 1.2 0 0.2 0 0.4-0.1 0.2-0.1 0.3h-4.8q0 0.4 0.2 0.6 0.2 0.5 0.6 0.8 0.4 0.2 1 0.2 0.5 0 0.9-0.2 0.4-0.2 0.6-0.6l1.3 0.6q-0.2 0.5-0.6 0.9-0.4 0.3-1 0.5-0.6 0.2-1.2 0.2-1.1 0-1.8-0.4-0.8-0.5-1.2-1.3-0.5-0.8-0.5-1.8 0-1 0.5-1.7 0.4-0.8 1.2-1.3 0.7-0.4 1.6-0.4 0.8 0 1.4 0.2 0.6 0.3 1 0.8 0.4 0.4 0.7 1zm-4.6 0.3q0 0.2-0.1 0.4h3.2q-0.1-0.2-0.1-0.4-0.2-0.5-0.6-0.7-0.3-0.3-0.9-0.3-0.5 0-0.9 0.3-0.3 0.2-0.6 0.7zm9.3-2.2h0.4v1.4h-0.6q-0.7 0-1.1 0.4-0.4 0.4-0.4 1.2v3.7h-1.6v-6.7h1.5v1q0.2-0.5 0.6-0.7 0.5-0.3 1.2-0.3zm5.6 0h1.7l-2.6 6.7h-1.4l-2.6-6.7h1.7l1.6 4.4zm2.6-2.5h1.6v1.7h-1.6z"/><path fill-rule="evenodd" class="h" d="m50 156.8h1.6v6.7h-1.6zm4.7 2.3q-0.2 0.4-0.2 1 0 0.6 0.2 1.1 0.2 0.4 0.6 0.7 0.5 0.2 1 0.2 0.6 0 1-0.3 0.4-0.3 0.6-0.8l1.4 0.6q-0.2 0.6-0.6 1-0.5 0.5-1.1 0.7-0.4 0.2-0.8 0.3l-0.1 0.2q0.6 0.1 1 0.4 0.4 0.3 0.4 0.8 0 0.6-0.5 1-0.4 0.3-1.2 0.3-0.3 0-0.7-0.1-0.4-0.1-0.7-0.3l0.4-0.9q0.1 0.1 0.4 0.2 0.2 0.1 0.4 0.1 0.3 0 0.4-0.1 0.2-0.1 0.2-0.3 0-0.3-0.3-0.4-0.3-0.1-0.9-0.2l0.2-0.7q-0.7-0.1-1.3-0.5-0.8-0.4-1.2-1.2-0.5-0.8-0.5-1.8 0-1 0.5-1.8 0.4-0.8 1.2-1.2 0.8-0.5 1.8-0.5 0.7 0 1.3 0.3 0.6 0.2 1.1 0.7 0.4 0.4 0.6 1l-1.4 0.6q-0.2-0.5-0.6-0.8-0.5-0.3-1-0.3-0.5 0-1 0.3-0.4 0.2-0.6 0.7zm12.1-0.8q0.5 0.8 0.5 1.8 0 1-0.5 1.8-0.5 0.8-1.3 1.2-0.8 0.5-1.7 0.5-1 0-1.8-0.5-0.8-0.4-1.3-1.2-0.5-0.8-0.5-1.8 0-1 0.5-1.8 0.5-0.8 1.3-1.2 0.8-0.5 1.8-0.5 0.9 0 1.7 0.5 0.8 0.4 1.3 1.2zm-1.2 1.8q0-0.6-0.2-1-0.3-0.5-0.7-0.7-0.4-0.3-0.9-0.3-0.6 0-1 0.3-0.4 0.2-0.7 0.7-0.2 0.4-0.2 1 0 0.6 0.2 1.1 0.3 0.4 0.7 0.7 0.4 0.2 1 0.2 0.5 0 0.9-0.2 0.4-0.3 0.7-0.7 0.2-0.5 0.2-1.1zm4.4-1.5q0 0.2 0.1 0.3 0.1 0.2 0.3 0.3 0.1 0 0.4 0.1l1 0.3q0.9 0.3 1.3 0.8 0.4 0.5 0.4 1.2 0 0.6-0.3 1-0.3 0.5-0.9 0.7-0.5 0.3-1.3 0.3-1 0-1.8-0.5-0.8-0.5-1.1-1.4l1.2-0.6q0.2 0.6 0.7 0.9 0.5 0.3 1 0.3 0.5 0 0.7-0.2 0.3-0.2 0.3-0.5 0-0.2-0.1-0.3-0.1-0.1-0.3-0.2-0.2-0.1-0.4-0.2l-1.1-0.3q-0.8-0.2-1.3-0.7-0.4-0.5-0.4-1.2 0-0.6 0.3-1.1 0.3-0.4 0.9-0.7 0.5-0.3 1.3-0.3 0.9 0 1.6 0.5 0.8 0.4 1.1 1.3l-1.3 0.5q-0.1-0.4-0.5-0.7-0.4-0.2-0.9-0.2-0.4 0-0.7 0.1-0.2 0.2-0.2 0.5zm13 0q0.2 0.6 0.2 1.3 0 0.2 0 0.4 0 0.1 0 0.3h-4.8q0 0.3 0.1 0.6 0.2 0.5 0.7 0.7 0.4 0.3 0.9 0.3 0.6 0 1-0.2 0.4-0.3 0.6-0.7l1.3 0.7q-0.2 0.4-0.6 0.8-0.5 0.4-1 0.6-0.6 0.2-1.3 0.2-1 0-1.8-0.5-0.8-0.4-1.2-1.2-0.4-0.8-0.4-1.8 0-1 0.4-1.8 0.5-0.8 1.2-1.2 0.8-0.5 1.7-0.5 0.8 0 1.4 0.3 0.6 0.3 1 0.7 0.4 0.5 0.6 1zm-4.5 0.3q-0.1 0.2-0.1 0.4h3.1q0-0.2-0.1-0.4-0.1-0.4-0.5-0.7-0.4-0.2-0.9-0.2-0.5 0-0.9 0.2-0.4 0.3-0.6 0.7zm7.5-4.6h6.4v1.5h-2.3v7.6h-1.7v-7.6h-2.4zm10.9 2.5h1.6v6.6h-1.5v-0.8q-0.2 0.4-0.6 0.7-0.5 0.3-1.3 0.3-0.7 0-1.3-0.4-0.6-0.3-0.9-0.9-0.3-0.6-0.3-1.5v-4h1.6v3.9q0 0.4 0.2 0.7 0.2 0.3 0.5 0.5 0.3 0.2 0.7 0.2 0.4 0 0.7-0.2 0.3-0.2 0.5-0.5 0.1-0.3 0.1-0.7zm6.4-0.1h0.4v1.4h-0.6q-0.6 0-1.1 0.4-0.4 0.5-0.4 1.2v3.7h-1.6v-6.6h1.5v0.9q0.3-0.5 0.6-0.7 0.5-0.3 1.2-0.3zm1.3-2.4h1.6v1.7h-1.6z"/><path fill-rule="evenodd" class="h" d="m104.6 163.5h1.6v-6.7h-1.6zm4.8-5.3q0.2-0.2 0.6-0.2 0.6 0 1 0.3 0.4 0.3 0.5 0.7l1.3-0.5q-0.4-0.9-1.1-1.3-0.7-0.5-1.6-0.5-0.8 0-1.3 0.3-0.6 0.2-0.9 0.7-0.3 0.5-0.3 1.1 0 0.7 0.4 1.2 0.5 0.5 1.3 0.7l1.1 0.3q0.2 0.1 0.4 0.2 0.2 0.1 0.3 0.2 0.1 0.1 0.1 0.3 0 0.3-0.3 0.5-0.2 0.2-0.7 0.2-0.5 0-1-0.3-0.5-0.3-0.7-0.9l-1.2 0.6q0.3 0.9 1.1 1.4 0.8 0.5 1.8 0.5 0.8 0 1.3-0.3 0.6-0.2 0.9-0.7 0.3-0.5 0.3-1.1 0-0.7-0.4-1.2-0.5-0.4-1.3-0.7l-1-0.3q-0.3-0.1-0.4-0.2-0.2 0-0.3-0.2-0.1-0.1-0.1-0.3 0-0.3 0.2-0.5zm13.3-1.2q-0.5-0.3-1.2-0.3-0.8 0-1.4 0.4-0.4 0.3-0.7 0.7-0.2-0.4-0.6-0.6-0.6-0.5-1.5-0.5-0.7 0-1.3 0.4-0.3 0.2-0.5 0.6v-0.8h-1.5v6.6h1.6v-3.9q0-0.4 0.1-0.7 0.2-0.3 0.5-0.5 0.3-0.2 0.7-0.2 0.4 0 0.6 0.2 0.3 0.2 0.5 0.5 0.1 0.3 0.1 0.7v3.9h1.7v-3.9q0-0.4 0.1-0.7 0.2-0.3 0.5-0.5 0.3-0.2 0.6-0.2 0.4 0 0.7 0.2 0.3 0.2 0.5 0.5 0.1 0.3 0.1 0.7v3.9h1.6v-4.2q0-0.8-0.3-1.4-0.3-0.5-0.9-0.9zm7.6 0.2q-0.8-0.5-1.8-0.5-1 0-1.7 0.5-0.8 0.4-1.3 1.2-0.5 0.8-0.5 1.8 0 1 0.5 1.8 0.5 0.8 1.3 1.2 0.8 0.5 1.7 0.5 1 0 1.8-0.5 0.8-0.4 1.3-1.2 0.5-0.8 0.5-1.8 0-1-0.5-1.8-0.5-0.8-1.3-1.2zm-0.2 4q-0.2 0.5-0.6 0.8-0.4 0.2-1 0.2-0.5 0-0.9-0.2-0.4-0.3-0.7-0.8-0.2-0.4-0.2-1 0-0.6 0.2-1 0.3-0.5 0.7-0.7 0.4-0.3 0.9-0.3 0.6 0 1 0.3 0.4 0.2 0.6 0.7 0.3 0.4 0.3 1 0 0.6-0.3 1z"/><path fill-rule="evenodd" class="b" d="m384.7 0.8h-1.7v206.4h1.7zm590.1 151.9q-0.9-0.2-1.4-0.5-0.5-0.3-0.7-0.7-0.2-0.4-0.2-1 0-1.1 1-1.8 0.9-0.8 2.6-0.8 1.3 0 2.4 0.4 1.1 0.3 2.3 1.1v-2.1q-1-0.5-2.1-0.7-1.1-0.3-2.5-0.3-1.2 0-2.3 0.3-1 0.4-1.8 0.9-0.7 0.6-1.1 1.4-0.5 0.9-0.5 1.8 0 1 0.4 1.7 0.3 0.6 1 1.1 0.7 0.5 1.8 0.8 1.1 0.3 2.6 0.6 1.4 0.3 2.3 0.6 0.8 0.3 1.3 0.7 0.5 0.3 0.7 0.8 0.2 0.4 0.2 1 0 0.6-0.3 1.2-0.2 0.5-0.7 1-0.6 0.4-1.3 0.7-0.7 0.2-1.5 0.2-1.4 0-2.4-0.3-1.1-0.3-2.1-0.9l-1.4 1.2q2.5 1.7 5.8 1.7 1.3 0 2.4-0.4 1-0.4 1.8-1.1 0.8-0.6 1.2-1.6 0.5-0.9 0.5-1.9 0-1.9-1.4-2.9-1.4-1-4.2-1.6-1.5-0.3-2.4-0.6zm12.4-6.4h-2v1.5h2zm-2 16.2h2v-11.8h-2zm8.2-7q-0.6-0.2-1-0.4-0.5-0.3-0.8-0.6-0.2-0.3-0.2-0.7 0-0.8 0.6-1.2 0.7-0.5 1.8-0.5 1.6 0 3.2 0.7v-1.7q-0.8-0.2-1.6-0.4-0.7-0.1-1.5-0.1-1 0-1.8 0.2-0.8 0.3-1.3 0.7-0.6 0.4-0.9 1.1-0.4 0.6-0.4 1.3v0.1q0 0.8 0.4 1.3 0.4 0.6 1 0.9 0.6 0.4 1.4 0.7 0.7 0.2 1.5 0.4 0.6 0.2 1.2 0.3 0.6 0.2 1 0.5 0.4 0.2 0.7 0.5 0.3 0.3 0.3 0.8 0 0.9-0.8 1.4-0.7 0.5-1.9 0.5-1.1 0-2.3-0.4-1.1-0.4-2.1-1.1v1.8q1 0.6 2.1 0.9 1.1 0.3 2.2 0.3 1 0 1.8-0.3 0.8-0.2 1.4-0.7 0.7-0.4 1-1.1 0.4-0.6 0.4-1.5 0-0.8-0.4-1.3-0.3-0.6-0.9-1-0.6-0.3-1.4-0.6-0.7-0.3-1.4-0.5-0.7-0.2-1.3-0.3zm13.5 5.5h-0.7q-2.3 0-2.3-2.6v-6.1h3v-1.5h-3v-2.1h-2v9.8q0 2 1 3 1.1 1 3 1h1zm12-1q-0.7 0.6-1.6 0.9-0.9 0.4-2.2 0.4-0.8 0-1.6-0.2-0.7-0.3-1.4-0.8-0.6-0.5-1-1.2-0.4-0.8-0.5-1.7h10.2q0-0.2 0-0.3v-0.3q0-1.3-0.4-2.4-0.4-1.1-1.1-2-0.8-0.8-1.9-1.3-1.1-0.5-2.6-0.5-1.3 0-2.4 0.5-1.1 0.5-2 1.3-0.8 0.8-1.2 2-0.5 1.1-0.5 2.3 0 1.4 0.5 2.5 0.5 1.2 1.4 2 0.8 0.8 2 1.2 1.2 0.4 2.5 0.4 1.2 0 2.1-0.2 0.9-0.3 1.7-0.7zm-2.4-7.6q0.7 0.4 1.2 0.9 0.5 0.5 0.8 1.3 0.3 0.7 0.4 1.5h-8.3q0.1-0.9 0.5-1.6 0.3-0.7 0.9-1.3 0.5-0.5 1.2-0.8 0.8-0.3 1.6-0.3 1 0 1.7 0.3zm18.5-1.2q-1.2 0.7-2 1.8-0.8-1.1-2-1.8-1.2-0.6-2.7-0.6-1.1 0-2.2 0.4-1 0.5-1.7 1.2-0.8 0.8-1.3 1.8-0.4 1-0.4 2.1v6.5h1.9v-6.5q0-0.7 0.3-1.4 0.2-0.8 0.7-1.3 0.4-0.6 1.1-1 0.7-0.3 1.6-0.3 0.9 0 1.6 0.3 0.7 0.4 1.2 1 0.5 0.5 0.7 1.3 0.2 0.7 0.2 1.4v6.5h1.9v-6.5q0-0.7 0.3-1.4 0.2-0.8 0.7-1.3 0.5-0.6 1.2-1 0.7-0.3 1.6-0.3 0.9 0 1.6 0.3 0.7 0.4 1.1 1 0.5 0.5 0.7 1.3 0.3 0.7 0.3 1.4v4.2 2.3h1.9v-6.5q0-1.1-0.5-2.1-0.4-1-1.2-1.8-0.7-0.7-1.7-1.2-1.1-0.4-2.2-0.4-1.5 0-2.7 0.6zm14.7-0.4q-0.9 0.2-1.8 0.5v1.7q0.8-0.4 1.8-0.6 0.9-0.3 2-0.3 1.9 0 2.9 0.9 1 0.8 1 2.4v0.3q-0.9-0.2-2-0.3-1.2-0.2-2.4-0.2-2.5 0-3.9 1-1.4 1-1.4 2.9 0 0.9 0.4 1.6 0.4 0.7 1 1.2 0.6 0.5 1.5 0.7 0.8 0.2 1.7 0.2 0.8 0 1.6-0.1 0.8-0.2 1.4-0.5 0.7-0.3 1.2-0.6 0.5-0.4 0.9-0.8v1.8h1.8v-7.2q0-2.4-1.4-3.6-1.4-1.2-4.1-1.2-1.2 0-2.2 0.2zm5.9 7.4q0 0.7-0.4 1.3-0.4 0.6-1.1 1-0.6 0.5-1.5 0.7-0.9 0.2-1.7 0.2-1.3 0-2.2-0.6-0.8-0.6-0.8-1.8 0-1.1 0.8-1.8 0.9-0.7 2.7-0.7 1.2 0 2.3 0.2 1.2 0.2 1.9 0.3zm20.5 3q-0.3 0-0.6 0.1-0.4 0-0.7 0-1.4 0-2.7-0.5-1.2-0.5-2.1-1.4-0.9-0.9-1.4-2.1-0.5-1.2-0.5-2.6 0-1.4 0.5-2.6 0.5-1.2 1.4-2.1 0.9-0.8 2.1-1.3 1.3-0.5 2.7-0.5 0.3 0 0.7 0 0.3 0 0.6 0v-1.6q-0.6-0.1-1.3-0.1-1.9 0-3.5 0.7-1.6 0.6-2.8 1.7-1.1 1.2-1.8 2.7-0.7 1.4-0.7 3.1 0 1.8 0.7 3.3 0.7 1.4 1.8 2.5 1.2 1.1 2.8 1.8 1.6 0.6 3.5 0.6 0.6 0 1.3-0.1zm9.8 1.3q1.3-0.5 2.2-1.3 0.9-0.9 1.4-2 0.5-1.1 0.5-2.4 0-1.2-0.5-2.3-0.5-1.1-1.4-2-0.9-0.8-2.1-1.3-1.2-0.5-2.7-0.5-1.4 0-2.7 0.5-1.2 0.5-2.1 1.3-0.9 0.9-1.4 2-0.5 1.1-0.5 2.4 0 1.2 0.5 2.3 0.5 1.2 1.4 2 0.9 0.8 2.1 1.3 1.2 0.5 2.7 0.5 1.4 0 2.6-0.5zm-0.8-9.9q0.8 0.4 1.4 1 0.6 0.6 1 1.5 0.3 0.8 0.3 1.8 0 0.9-0.3 1.7-0.3 0.9-0.9 1.5-0.6 0.6-1.4 0.9-0.9 0.4-1.9 0.4-1 0-1.9-0.4-0.8-0.3-1.4-0.9-0.6-0.7-0.9-1.5-0.4-0.8-0.3-1.8 0-0.9 0.3-1.8 0.3-0.8 0.8-1.4 0.6-0.7 1.5-1 0.8-0.4 1.8-0.4 1.1 0 1.9 0.4zm18.8-1.3q-1.2 0.7-2 1.8-0.8-1.1-2-1.8-1.2-0.6-2.7-0.6-1.1 0-2.2 0.4-1 0.5-1.8 1.2-0.7 0.8-1.2 1.8-0.4 1-0.4 2.1v6.5h1.9v-6.5q0-0.7 0.3-1.4 0.2-0.8 0.7-1.3 0.4-0.6 1.1-1 0.7-0.3 1.6-0.3 0.9 0 1.6 0.3 0.7 0.4 1.2 1 0.5 0.5 0.7 1.2 0.2 0.8 0.2 1.5v6.5h1.9v-6.5q0-0.7 0.3-1.5 0.2-0.7 0.7-1.2 0.5-0.6 1.2-1 0.7-0.3 1.6-0.3 0.9 0 1.6 0.3 0.6 0.4 1.1 1 0.5 0.5 0.7 1.3 0.3 0.7 0.3 1.4v4.2 2.3h1.9v-6.5q0-1.1-0.5-2.1-0.4-1-1.2-1.8-0.7-0.7-1.8-1.2-1-0.4-2.1-0.4-1.5 0-2.7 0.6zm21.1 8.8q-0.7 0.6-1.6 1-0.9 0.3-2.1 0.3-0.9 0-1.6-0.2-0.8-0.3-1.4-0.8-0.6-0.5-1-1.2-0.4-0.8-0.5-1.7h10.2q0-0.2 0-0.3v-0.3q0-1.3-0.4-2.4-0.4-1.1-1.2-2-0.8-0.8-1.9-1.3-1.1-0.5-2.5-0.5-1.3 0-2.5 0.5-1.1 0.5-1.9 1.3-0.8 0.9-1.3 2-0.4 1.1-0.4 2.3 0 1.4 0.5 2.5 0.5 1.2 1.3 2 0.9 0.8 2.1 1.2 1.1 0.4 2.4 0.4 1.2 0 2.2-0.2 0.9-0.3 1.6-0.7zm-2.4-7.6q0.8 0.4 1.3 0.9 0.5 0.5 0.8 1.3 0.3 0.7 0.3 1.5h-8.2q0.1-0.9 0.4-1.6 0.4-0.7 0.9-1.3 0.6-0.5 1.3-0.8 0.7-0.3 1.5-0.3 1 0 1.7 0.3zm-1.3-3.3l3.1-2.7h-2.4l-2.1 2.7zm12.8 1.5q-1.1 0-2.1 0.5-1.1 0.4-1.8 1.2-0.8 0.7-1.2 1.7-0.5 1-0.5 2.2v6.4h1.9v-6.4q0-0.8 0.3-1.5 0.3-0.7 0.8-1.2 0.5-0.5 1.2-0.8 0.7-0.3 1.4-0.3h0.7v-1.8zm9.1 10.6q-0.4 0.1-1 0.1-1 0-2-0.3-0.9-0.4-1.5-1-0.7-0.6-1.1-1.5-0.4-0.8-0.4-1.8 0-0.9 0.4-1.8 0.4-0.8 1-1.4 0.7-0.7 1.6-1 0.9-0.4 1.9-0.4 0.6 0 1.1 0.2v-1.6q-0.5-0.1-1.1-0.1-1.5 0-2.8 0.5-1.2 0.5-2.2 1.3-0.9 0.9-1.5 2-0.5 1.1-0.5 2.4 0 1.2 0.5 2.3 0.6 1.2 1.5 2 1 0.8 2.2 1.3 1.3 0.5 2.8 0.5 0.6 0 1.1-0.1zm4.6-14.8h-2.1v1.6h2.1zm-2.1 16.1h2.1v-11.8h-2.1zm13.2-0.2q1.2-0.4 2.1-1.3 0.9-0.8 1.4-2 0.5-1.1 0.5-2.3 0-1.3-0.5-2.4-0.5-1.1-1.4-1.9-0.9-0.9-2.1-1.3-1.2-0.5-2.6-0.5-1.5 0-2.7 0.5-1.3 0.4-2.2 1.3-0.9 0.8-1.4 1.9-0.5 1.2-0.5 2.4 0 1.3 0.5 2.4 0.5 1.1 1.4 1.9 0.9 0.9 2.1 1.3 1.3 0.5 2.7 0.5 1.5 0 2.7-0.5zm-0.9-9.8q0.9 0.3 1.5 0.9 0.6 0.7 0.9 1.5 0.3 0.8 0.3 1.8 0 1-0.3 1.8-0.3 0.8-0.9 1.4-0.6 0.6-1.4 1-0.8 0.3-1.9 0.3-1 0-1.8-0.3-0.8-0.4-1.4-1-0.6-0.6-1-1.5-0.3-0.8-0.3-1.7 0-1 0.3-1.8 0.3-0.9 0.9-1.5 0.6-0.6 1.4-1 0.8-0.3 1.9-0.3 1 0 1.8 0.4zm23.4 5.1h485.2v-1.2h-485.2z"/><path fill-rule="evenodd" class="b" d="m466.9 156.4h485.1v1.1h-485.1zm296-59.8c0-1.7 1.3-3 2.9-3 1.7 0 3 1.3 3 3 0 1.6-1.3 2.9-3 2.9-1.6 0-2.9-1.3-2.9-2.9z"/><path class="b" d="m762.9 96.5c0-1.6 1.3-2.9 2.9-2.9 1.7 0 3 1.3 3 2.9 0 1.7-1.3 3-3 3-1.6 0-2.9-1.3-2.9-3z"/><path class="i" d="m873.6 49.1h-24.2c-5.3 0-10.7 2.9-13.2 4.7-12.1 8.6-18 26.1-18 26.1 1.6-2.9 14-25.5 30.7-25.5h17.7c0 0 0 2.9-1.5 4.9 9.6-3.3 8.5-10.2 8.5-10.2z"/><path class="i" d="m852.5 61.1c-0.1 0.5-0.2 2.2-1 3.6q0 0 0 0v0.1c7.9-0.7 11.7-3.1 13.5-5.5-3 1.1-7.1 1.8-12.5 1.8z"/><path fill-rule="evenodd" class="b" d="m851.5 64.7c-1.1 2.6-4.1 5.2-12.2 5-10.4-0.2-16.1 5.6-19.1 8.6 3-4.5 9-13.7 21.7-13.4 3.1 0.1 4.9 0.1 4.9 0.1 1.7 0 3.3-0.1 4.7-0.3zm9.4 31.1c0 4.8 4.7 8.1 11.4 8.1q0.6 0 1.3 0v6.1q-0.6 0-1.3 0c-8.5 0-17.5-2.9-19.9-10.2v10.2h-9.2l-15.9-17.6v17.6h-13.4c-9.9 0-20.4-4-20.4-14.2 0-8.8 9.2-12.9 18.5-13.5v6.2c-5.7 0.4-9.4 3-9.4 7.3 0 4.7 4.6 8.1 11.3 8.1h4.3v-21.6c4.9 0 10 1.8 14.2 6.4 4 4.5 11 12.2 11 12.2v-18.6h9v9.8c2.4-6.8 11.4-9.8 19.9-9.8 0.4 0 0.9 0 1.3 0v6.1q-0.7 0-1.3 0c-6.8 0-11.4 2.6-11.4 7.4zm40.5 3.7c-1.7 0-3-1.3-3-3 0-1.6 1.3-2.9 3-2.9 1.6 0 2.9 1.3 2.9 2.9 0 1.7-1.3 3-2.9 3zm485.2 0c-1.6 0-3-1.3-3-3 0-1.6 1.4-2.9 3-2.9 1.6 0 2.9 1.3 2.9 2.9 0 1.7-1.3 3-2.9 3zm141.8 0c-1.6 0-2.9-1.3-2.9-3 0-1.6 1.3-2.9 2.9-2.9 1.6 0 3 1.3 3 2.9 0 1.7-1.4 3-3 3z"/><path class="j" d="m1431.2 88.5c5.7-7.3 21.5-21.8 43-21.8 15.1 0 26.5 8.6 26.5 8.6-8.5-4.1-42.1-10.9-68.6 13.6z"/><path class="b" d="m1499 91.1q0.9 0 1.7 0.1v-4.7q-1.6-0.2-3.3-0.2c-8.3 0-14.5 4.9-14.5 11.5q0 0.7 0.1 1.3c-1.2-2-3.9-3-7.7-3.8-4.8-1-5.5-1.4-5.4-2.5 0.1-1 1.7-1.9 4.2-1.9 1.5 0 3.6 0.3 5.5 1.2v-4.9c-1.8-0.6-3.8-0.9-5.9-0.9-6.1 0-10.2 2.9-10.5 6.9q0 0.1-0.1 0.1c-1.4-4-4.9-6.9-10.8-6.9-7.2 0-12.1 5.2-12.1 11.5q0 0.3 0 0.5c-1.3-2.9-4.8-4.2-9.6-5.3-5.6-1.2-6.4-1.7-6.4-3 0-1.2 1.5-2.3 3.7-2.2 1.7 0 2.8 0.4 3.3 0.6q2-2.6 4.4-4.9-3.5-1.3-7.7-1.3c-6.6 0-11.3 3.3-11.3 8.3 0 3.9 2 5.6 5.6 6.8 0.1 0.1 0.7 0.2 1 0.3q1.8 0.6 4.1 1c5.5 1.2 5.9 2.2 5.9 3.3 0 1.3-1.5 2-4.1 2-2.9 0-5.6-0.8-8.4-2.7-1.5 2-3 4.2-3.8 5.5 3.6 1.9 7.7 3.1 12.1 3.1 7.1 0 11.6-3.1 11.8-8.1 1.5 4.6 5.7 7.6 11.4 7.6 1.1 0 2.7-0.1 5.3-0.7v-4.9c-2.4 0.7-3.5 0.8-4.9 0.7-2.8-0.1-5.1-1.7-5.8-4.5h17.1c0.1-0.6 0.1-1 0.1-1.6q0-0.9-0.1-1.8c1.3 1.8 4.2 2.5 8.1 3.3 4.7 0.9 5 1.7 5 2.8 0 1-1.3 2.1-4.1 2-2.9-0.1-6.3-0.9-8.9-2.4v5.6c2.8 1.2 6.2 2 8.9 2 6.4 0 10.8-3.8 10.8-7.9q0-0.1 0-0.2c1.2 2.6 3.4 4.7 6 5.9 2.5 1.2 5.2 1.6 7.4 1.6 1.4 0 2.5 0 3.6-0.2v-4.8q-0.8 0.2-1.7 0.2c-4.8 0-8.6-3-8.6-6.7 0-3.7 3.8-6.7 8.6-6.7zm-52.2 5c0.6-2.8 2.6-4.6 5.6-4.6 3 0 4.9 1.8 5.3 4.6z"/><path class="j" d="m1423.4 97.8c-1.7 2-5.1 6.7-6.5 9-1.3-0.8-2-1.3-2.6-1.8 2-2.3 5.2-5.6 7.8-7.6 0 0 1.2 0.4 1.3 0.4z"/><path class="k" d="m1627.1 66.4c10.3-4.9 21-6.9 31.2-6.5-8.8-3.9-18.8-5.9-29.4-5.5-5.2 0.2-10.3 1-15.1 2.2-2.4 3.2-4.3 6.7-5.8 10.3q3.4 3.4 7.5 6.4c3.5-2.6 7.4-5 11.6-6.9z"/><path class="l" d="m1615.5 73.3q-0.5-0.4-1-0.8-3.1-2.3-5.8-4.9-0.1-0.1-0.2-0.2l-0.1-0.1-0.1-0.1-0.1-0.1-0.1-0.1-0.1-0.1c1.5-3.6 3.4-7.1 5.8-10.3-3.9 1.1-7.8 2.5-11.3 4.2q2.5 3.2 5.5 6.1c-2.2 5.2-3.3 10.7-3.4 16.5 3.2-3.7 6.8-7.1 10.9-10.1zm-6.8-5.7q-0.1-0.1-0.2-0.2"/><path fill-rule="evenodd" class="b" d="m1666.6 109.9q-0.3 0-0.8 0c-8 0-14.5-4.4-16.1-10.3v9.2h-6.8v-2.6c-1.8 1.7-4.1 2.8-7.6 2.8-4.1 0-7.5-1.8-8.3-5.1v4.8h-7.1v-12.1c-0.2-2.2-1.1-4.8-4.3-4.8-3.2 0-4.1 2.6-4.2 4.8v12.1h-7.2v-8.9h-17c0.7 2.9 3 4.3 6.1 4.3 0.2 0 0.9 0 1.1 0v5c-0.3 0-1 0.1-1.2 0.1-5.7 0-10.3-2.8-12.1-7.1-0.3 5.1-5.1 7.9-11.9 7.9-4.9 0-9.2-1.4-13.1-4.3l4.2-4.2c2.9 2 5.3 3.3 9 3.3 3 0 4.7-1 4.7-2.5v-0.1c0-1.5-0.5-2.3-5.9-3.4-6.5-1.4-10.7-2.9-10.7-8.3 0-4.9 4.7-8.2 11.3-8.2 1.4 0 3.2 0.3 4.4 0.5v5.6c-1.3-0.4-3.1-0.8-4.5-0.8-2.7 0-4.2 1-4.2 2.3v0.1c0 1.8 0.8 2.3 6.4 3.5 4.7 1 8 2.3 9.4 4.7q0-0.2 0-0.4v-0.1c0-6.3 5.1-11.5 12.3-11.5 7.2 0 10.9 4.2 11.8 9.4 0.6-5.3 4.2-9.2 11.3-9.2 7.7 0 11.4 4.7 11.4 10.7v3.4c0.8-3.4 4.1-5.5 10.6-5.3 1.7 0.1 3.6 0.2 5.3 0.4q-0.1-2.2-1.9-3.2c-0.8-0.5-2.7-0.7-4.1-0.7v-5.4c0.3 0 1.4 0 1.7 0 7 0 10.4 2.9 11 7.9 1.4-6.3 8-10.8 16.4-10.8q0.3 0 0.6 0.1v5.2q-0.3 0-0.7 0c-4.8 0-8.6 3.5-8.6 7.9v0.1c0 4.6 3.7 7.9 9 7.9q0.2 0 0.3 0zm-23.7-10.4c0 0-6-0.8-8.4 0.7-1.8 1.1-1.7 4.8 3.7 4.5 0.8-0.1 4.1-0.5 4.7-3.8 0.1-0.6 0-1.2 0-1.4zm8.1-44.4c-7.8-2.8-16.4-4.3-25.5-3.9q-3.9 0.1-7.7 0.6 3.4-3.5 7.5-6.6 0.1 0.1 0.2 0.1c1.9 0.2 3.8 0.7 5.6 1.1 7.5 1.8 14.3 4.9 19.9 8.7zm-53.2 40.8c-0.4-2.8-2.3-4.7-5.3-4.7-2.9 0-4.8 1.9-5.4 4.7zm-655.2-2.4q2.2 0.6 4 1.2 1.8 0.7 2.9 1.6 1.2 1 1.9 2.3 0.6 1.3 0.6 3v0.1q0 2-0.8 3.6-0.8 1.5-2.2 2.6-1.5 1-3.5 1.6-1.9 0.5-4.3 0.5-6.7 0-12-4.3l3.8-4.1q2 1.5 3.9 2.3 1.9 0.9 4.4 0.9 2 0 3.1-0.7 1.1-0.6 1.1-1.8v-0.1q0-0.6-0.1-1-0.2-0.4-0.7-0.8-0.6-0.4-1.6-0.8-1.1-0.4-3-0.8-2.2-0.5-4-1.1-1.8-0.6-3.1-1.5-1.3-1-2-2.3-0.7-1.4-0.7-3.4v-0.1q0-1.8 0.8-3.3 0.8-1.5 2.1-2.5 1.4-1.1 3.3-1.7 1.9-0.6 4.2-0.6 1.3 0 2.6 0.3 1.3 0.3 2.2 0.5v5.6q-0.9-0.4-2.3-0.7-1.3-0.4-2.6-0.4-1.9 0-2.8 0.7-1 0.6-1 1.6v0.1q0 0.7 0.2 1.1 0.2 0.5 0.8 0.9 0.6 0.3 1.8 0.7 1.1 0.4 3 0.8z"/><path fill-rule="evenodd" class="b" d="m953.1 89.2h6.5v20.2h-6.5zm6.5-3h-6.5v-4.5h6.5zm23.8 23.3h-6.6v-11.3q0-0.8-0.2-1.6-0.2-0.8-0.7-1.4-0.4-0.7-1.2-1.1-0.7-0.4-1.9-0.4-1.1 0-1.9 0.4-0.7 0.4-1.2 1.1-0.4 0.6-0.6 1.4-0.2 0.8-0.2 1.6v11.3h-6.7v-10.9q0-2.1 0.7-3.9 0.6-1.8 1.9-3.2 1.4-1.3 3.3-2.1 2-0.7 4.7-0.7 2.7 0 4.7 0.7 2 0.8 3.3 2.1 1.3 1.4 1.9 3.2 0.7 1.8 0.7 3.9zm11.2-20.4q1.6 0 3 0.4 1.3 0.5 2.6 1.3v-9.1h6.6v27.8h-6.6v-1.2q-1.3 0.8-2.6 1.2-1.4 0.5-3 0.5-2.1 0-3.9-0.8-1.9-0.9-3.3-2.3-1.4-1.4-2.2-3.3-0.8-1.9-0.8-4.1 0-2.1 0.8-4 0.8-1.9 2.2-3.4 1.4-1.4 3.3-2.2 1.8-0.8 3.9-0.8zm0.9 16.3q1.4 0 2.3-0.5 0.9-0.4 1.5-1.2 0.5-0.8 0.7-1.9 0.2-1 0.2-2.3 0-1.2-0.2-2.2-0.2-1.1-0.7-1.9-0.6-0.8-1.5-1.2-0.9-0.5-2.3-0.5-1.5 0-2.4 0.5-0.9 0.4-1.5 1.2-0.5 0.8-0.7 1.9-0.1 1-0.1 2.2 0 1.3 0.1 2.3 0.2 1.1 0.7 1.9 0.6 0.8 1.5 1.2 0.9 0.5 2.4 0.5zm16.2-16.1h6.5v20.2h-6.5zm6.5-3.1h-6.6v-4.5h6.6zm0.8 13.1q0-2.5 0.8-4.4 0.9-1.8 2.2-3 1.4-1.3 3.1-2 1.7-0.7 3.4-1 1.7-0.3 3.1-0.3 1.5 0 2.5 0.2v4.3q-1.1-0.1-2.5 0.1-1.5 0.2-2.9 0.9-1.4 0.7-2.4 1.9-1 1.3-1 3.3 0 1.9 1 3.2 1 1.3 2.3 2 1.4 0.7 2.9 0.8 1.5 0.2 2.6 0v4.4q-1 0.2-2.5 0.2-1.4 0.1-3.1-0.3-1.7-0.3-3.4-1-1.7-0.7-3.1-1.9-1.3-1.3-2.2-3.1-0.8-1.8-0.8-4.3zm27-10.5q5.4 0 7.8 2.3 2.5 2.4 2.5 6.5v11.9h-6.4v-2.2q-1.2 1.2-2.9 1.9-1.7 0.7-4.1 0.7-1.6 0-3-0.4-1.5-0.4-2.5-1.2-1.1-0.8-1.7-2-0.7-1.1-0.7-2.6v-0.1q0-1.7 0.7-2.9 0.7-1.3 1.9-2.1 1.3-0.7 3-1.1 1.7-0.4 3.7-0.4 1.8 0 3.1 0.2 1.4 0.2 2.6 0.6v-0.4q0-3.7-5-3.7-2.1 0-3.7 0.4v-5q1.1-0.2 2.2-0.3 1.2-0.1 2.5-0.1zm4.1 12.5q-0.9-0.4-1.9-0.6-1.1-0.2-2.3-0.2-2.2 0-3.4 0.7-1.2 0.8-1.2 2.1v0.1q0 1.2 1.1 1.8 1 0.7 2.6 0.7 2.2 0 3.7-1 1.4-1 1.4-2.6zm20.1-12.1v4.2h-6.1v7.8q0 1.1 0.4 2 0.4 0.9 1.8 1.5 1 0.3 2 0.5 0.9 0.1 1.9 0.2v4.5h-1.1q-5.9 0-8.7-2.3-2.9-2.2-2.9-6.3v-15.6h6.6v3.5z"/><path fill-rule="evenodd" class="b" d="m1077 89.4q-2 0.9-3.6 2.3-1.5 1.5-2.4 3.4-0.8 1.9-0.8 4.1 0 2.3 0.8 4.2 0.9 1.9 2.4 3.3 1.6 1.5 3.6 2.3 2 0.9 4.3 0.9 2.4 0 4.4-0.9 2-0.8 3.6-2.3 1.5-1.4 2.4-3.3 0.8-1.9 0.8-4.2 0-2.2-0.8-4.1-0.9-1.9-2.4-3.4-1.6-1.4-3.6-2.3-2-0.8-4.4-0.8-2.3 0-4.3 0.8zm1.9 15.3q-0.9-0.5-1.4-1.3-0.6-0.8-0.8-1.9-0.1-1-0.1-2.3 0-1.2 0.1-2.3 0.2-1 0.8-1.8 0.5-0.8 1.4-1.3 1-0.5 2.4-0.5 1.5 0 2.5 0.5 0.9 0.5 1.4 1.3 0.6 0.8 0.8 1.8 0.1 1.1 0.1 2.3 0 1.3-0.1 2.3-0.2 1.1-0.8 1.9-0.5 0.8-1.4 1.3-1 0.4-2.5 0.4-1.4 0-2.4-0.4zm23.7-8.9q-0.8-0.2-1.2-0.4-0.4-0.3-0.5-0.5-0.1-0.2-0.1-0.5 0-0.6 0.6-1.2 0.6-0.5 2.3-0.5 0.4 0 0.9 0 0.5 0.1 1 0.2v-4.2q-0.6-0.1-1.1-0.1-0.6-0.1-1.1-0.1-2.1 0-3.8 0.5-1.7 0.5-3 1.3-1.2 0.9-2 2-0.7 1.2-0.8 2.5-0.1 1.6 0.4 2.5 0.5 1 1.5 1.6 1.1 0.7 2.6 1.1 1.5 0.5 3.5 0.8 1.6 0.4 2.4 0.8 0.8 0.3 1.1 0.7 0.3 0.3 0.3 0.6v0.5q0 0.2-0.1 0.5-0.1 0.4-0.4 0.7-0.3 0.3-0.9 0.5-0.6 0.2-1.6 0.1-1.9-0.1-4-0.6-2.2-0.6-4-1.6v5.1q1.9 0.9 4 1.3 2.2 0.5 4 0.5 2.2 0 4-0.6 1.8-0.6 3.1-1.6 1.3-1 2-2.2 0.7-1.3 0.7-2.7 0-1.3-0.5-2.4-0.5-1-1.5-1.8-1-0.8-2.4-1.3-1.4-0.6-3.2-0.9-1.4-0.4-2.2-0.6zm44 13.6v-5.2h-14.3v-5.5h11.4v-5.4h-11.4v-5.1h14v-5.2h-20.3v26.4z"/><path fill-rule="evenodd" class="b" d="m1171.7 88.6q2.7 0 4.7 0.8 2 0.7 3.3 2.1 1.3 1.3 2 3.1 0.6 1.8 0.6 3.9v10.9h-6.6v-11.2q0-0.8-0.2-1.6-0.2-0.8-0.7-1.5-0.4-0.6-1.2-1-0.7-0.4-1.9-0.4-1.1 0-1.9 0.4-0.7 0.4-1.2 1-0.4 0.7-0.6 1.5-0.2 0.8-0.2 1.6v11.2h-6.7v-11.2q0-0.8-0.2-1.6-0.2-0.8-0.6-1.5-0.5-0.6-1.3-1-0.7-0.4-1.9-0.4-1.1 0-1.8 0.4-0.8 0.4-1.2 1-0.5 0.7-0.7 1.5-0.2 0.8-0.2 1.6v11.2h-6.6v-10.9q0-2.1 0.6-3.9 0.7-1.8 2-3.1 1.3-1.4 3.3-2.1 1.9-0.8 4.6-0.8 2.4 0 4.2 0.6 1.8 0.6 3.1 1.6 1.3-1 3.1-1.6 1.8-0.6 4.2-0.6zm24.7-0.1q2 0 3.8 0.8 1.8 0.8 3.1 2.2 1.4 1.4 2.2 3.2 0.7 1.9 0.7 4 0 2.1-0.7 3.9-0.8 1.9-2.2 3.2-1.3 1.4-3.1 2.2-1.8 0.8-3.8 0.8-3.1 0-5.5-1.6v8.4h-6.4v-26.6h6.4l0.1 1.1q1.1-0.7 2.5-1.2 1.4-0.4 2.9-0.4zm-0.9 15.8q1.4 0 2.3-0.4 0.9-0.5 1.4-1.2 0.5-0.8 0.7-1.8 0.2-1 0.2-2.2 0-1.2-0.2-2.2-0.2-1.1-0.7-1.8-0.5-0.8-1.4-1.2-0.9-0.5-2.3-0.5-1.4 0-2.3 0.5-0.9 0.4-1.4 1.2-0.5 0.7-0.7 1.8-0.2 1-0.2 2.2 0 1.2 0.2 2.2 0.2 1 0.7 1.8 0.5 0.7 1.4 1.2 0.9 0.4 2.3 0.4zm25-11.2q-1.1 0-2.1 0.2-1 0.2-1.7 0.5-0.5 0.2-1 0.5-0.4 0.3-0.7 0.7-0.3 0.4-0.4 1.1-0.2 0.6-0.2 1.5v11.8h-6.6v-12.1q0-1.9 0.7-3.5 0.8-1.6 2.2-2.8 1.4-1.1 3.4-1.8 2.1-0.7 4.7-0.7h0.5q0.2 0 0.5 0.1 0.3 0 0.7 0z"/><path fill-rule="evenodd" class="b" d="m1236.2 109.3q-1.8 0.4-3 0.5-1.1 0.1-1.9 0.1-2.5 0-4.5-0.8-2.1-0.8-3.5-2.1-1.5-1.4-2.3-3.4-0.8-1.9-0.8-4.2 0-2.2 0.8-4.2 0.9-1.9 2.3-3.4 1.5-1.4 3.5-2.3 2.1-0.8 4.6-0.8 2.9 0 4.9 0.9 2.1 0.9 3.4 2.5 1.3 1.5 1.9 3.5 0.7 2 0.7 4.1v0.1q0 0.4-0.1 0.7 0 0.3 0 0.7h-15.9q0.5 2 2 3 1.4 1.1 3.4 1.2 1 0.1 1.9 0 0.9-0.2 2.6-0.6zm-4.8-15.9q-2 0-3.4 1.2-1.3 1.1-1.7 3.1h10.1q-0.3-1.9-1.5-3.1-1.3-1.2-3.5-1.2zm22.8 3q1.8 0.3 3.2 0.9 1.4 0.5 2.4 1.3 1 0.8 1.5 1.8 0.5 1.1 0.5 2.4 0 1.4-0.7 2.7-0.7 1.3-2 2.2-1.3 1-3.1 1.6-1.8 0.6-4 0.6-1.8 0-4-0.5-2.2-0.4-4-1.3v-5.1q1.8 1.1 3.9 1.6 2.2 0.6 4.1 0.6 1 0.1 1.5-0.1 0.6-0.2 1-0.5 0.3-0.3 0.4-0.6 0.1-0.4 0.1-0.6v-0.5q0-0.3-0.3-0.6-0.3-0.3-1.1-0.7-0.8-0.4-2.4-0.7-2-0.4-3.5-0.9-1.6-0.4-2.6-1.1-1-0.6-1.5-1.6-0.5-0.9-0.4-2.5 0.1-1.3 0.8-2.5 0.7-1.1 2-2 1.2-0.8 3-1.3 1.7-0.4 3.7-0.4 0.6 0 1.1 0 0.6 0 1.1 0.1v4.2q-0.5-0.1-0.9-0.2-0.5 0-0.9 0-1.7 0-2.3 0.5-0.7 0.6-0.7 1.3 0 0.2 0.1 0.4 0.2 0.2 0.6 0.5 0.4 0.2 1.2 0.4 0.8 0.3 2.2 0.6zm19.5-7.7q5.3 0 7.8 2.4 2.5 2.3 2.5 6.5v11.9h-6.4v-2.3q-1.2 1.3-2.9 2-1.7 0.7-4.1 0.7-1.6 0-3.1-0.4-1.4-0.5-2.5-1.3-1-0.8-1.7-1.9-0.6-1.2-0.6-2.7v-0.1q0-1.6 0.7-2.9 0.7-1.2 1.9-2 1.2-0.8 3-1.2 1.7-0.4 3.7-0.4 1.8 0 3.1 0.2 1.3 0.3 2.6 0.6v-0.3q0-3.8-5-3.8-2.1 0-3.7 0.4v-5q1-0.2 2.2-0.3 1.1-0.1 2.5-0.1zm4.1 12.5q-0.9-0.3-2-0.5-1-0.2-2.2-0.2-2.2 0-3.4 0.7-1.2 0.7-1.2 2.1v0.1q0 1.1 1 1.8 1 0.6 2.6 0.6 2.3 0 3.7-1 1.5-0.9 1.5-2.5zm21.2-8.1q-1.1 0-2.1 0.1-1 0.2-1.7 0.5-0.5 0.3-1 0.6-0.4 0.2-0.7 0.7-0.3 0.4-0.4 1-0.2 0.6-0.2 1.6v11.8h-6.6v-12.2q0-1.9 0.7-3.5 0.8-1.6 2.2-2.7 1.4-1.2 3.4-1.8 2.1-0.7 4.7-0.7h0.5q0.2 0 0.5 0 0.3 0 0.7 0.1zm1.2-3.9h6.5v20.2h-6.5zm6.5-3.1h-6.5v-4.5h6.5zm12.6 2.6q5.3 0 7.8 2.3 2.5 2.4 2.5 6.5v12h-6.4v-2.3q-1.2 1.2-2.9 1.9-1.7 0.7-4.1 0.7-1.6 0-3-0.4-1.5-0.4-2.6-1.2-1-0.8-1.7-2-0.6-1.1-0.6-2.6v-0.1q0-1.7 0.7-2.9 0.7-1.2 1.9-2 1.2-0.8 3-1.2 1.7-0.4 3.7-0.4 1.8 0 3.1 0.2 1.3 0.2 2.6 0.6v-0.4q0-3.7-5-3.7-2.1 0-3.7 0.4v-5q1-0.2 2.2-0.3 1.1-0.1 2.5-0.1zm4.1 12.5q-0.9-0.4-1.9-0.6-1.1-0.2-2.3-0.2-2.2 0-3.4 0.8-1.2 0.7-1.2 2v0.1q0 1.2 1 1.9 1 0.6 2.6 0.6 2.3 0 3.7-1 1.5-1 1.5-2.6zm8.5-12h6.6v20.2h-6.6zm6.6-3h-6.6v-4.5h6.6zm12.7 10.2q1.8 0.3 3.2 0.9 1.4 0.6 2.4 1.3 1 0.8 1.5 1.8 0.5 1.1 0.5 2.4 0 1.4-0.7 2.7-0.7 1.3-2 2.2-1.3 1-3.1 1.6-1.8 0.6-4 0.6-1.8 0-4-0.5-2.2-0.4-4-1.3v-5.1q1.8 1.1 3.9 1.6 2.2 0.6 4.1 0.6 0.9 0.1 1.5-0.1 0.6-0.2 0.9-0.5 0.4-0.3 0.5-0.6 0.1-0.4 0.1-0.6v-0.4q0-0.4-0.3-0.7-0.3-0.3-1.1-0.7-0.8-0.4-2.4-0.7-2-0.4-3.5-0.9-1.6-0.4-2.6-1-1-0.7-1.5-1.7-0.6-0.9-0.4-2.5 0.1-1.3 0.8-2.5 0.7-1.1 2-1.9 1.2-0.9 2.9-1.4 1.8-0.4 3.8-0.4 0.6 0 1.1 0 0.6 0 1.1 0.1v4.2q-0.5-0.1-0.9-0.1-0.5-0.1-0.9-0.1-1.7 0-2.3 0.5-0.7 0.6-0.7 1.3 0 0.2 0.1 0.4 0.2 0.2 0.6 0.5 0.4 0.2 1.2 0.4 0.8 0.3 2.2 0.6zm-848.2 13.1c-2.3 0.6-3.8 0.6-4.8 0.6-6.5 0-10.9-4.3-10.9-10.4 0-5.8 4.4-10.5 11-10.5 7.5 0 10.7 5.3 10.7 10.9v0.1c0 0.5-0.1 0.8-0.1 1.4h-15.6c0.6 2.5 2.7 3.9 5.3 4.1 1.3 0 2.2 0 4.4-0.6zm-9.7-11.5h10c-0.4-2.5-2.2-4.2-5-4.2-2.7 0-4.5 1.7-5 4.2z"/><path fill-rule="evenodd" class="b" d="m585.3 98.9v10.7h-6.5v-11.1c-0.1-2-1-4.4-3.9-4.4-2.9 0-3.7 2.4-3.9 4.4v11.1h-6.5v-11.1c-0.1-2-1-4.4-3.9-4.4-3 0-3.7 2.4-3.9 4.4v11.1h-6.5v-10.7c0-5.5 3.3-9.7 10.4-9.7 3.1 0 5.5 0.8 7.1 2.1 1.7-1.3 4.1-2.1 7.2-2.1 7.1 0 10.4 4.2 10.4 9.7zm-111.9-11.2v5.3h11.8v5.5h-11.8v11.1h-6.5v-27.4h21.2v5.5zm167.3 1.9h6.5v20h-6.5z"/><path fill-rule="evenodd" class="b" d="m640.7 86.6h6.5v-4.4h-6.5zm-115.1 18.9q-0.7 0.2-1.5 0.2c-4 0-7.3-2.8-7.3-6.1 0-3.4 3.3-6.1 7.3-6.1q0.8 0 1.5 0.1v-4.3q-1.3-0.1-2.8-0.1c-7 0-12.3 4.4-12.3 10.4 0 4.3 2.6 7.4 5.7 9 2.2 1.1 4.5 1.5 6.4 1.5 1.1 0 2.1-0.1 3-0.2z"/><path fill-rule="evenodd" class="b" d="m548.3 99.6c0 5.7-4.9 10.4-11 10.4-6.1 0-11-4.7-11-10.4 0-5.8 4.9-10.5 11-10.5 6.1 0 11 4.7 11 10.5zm-6.3 0c0-3.3-0.8-5.9-4.7-5.9-3.9 0-4.7 2.6-4.7 5.9 0 3.2 0.8 5.8 4.7 5.8 3.9 0 4.7-2.6 4.7-5.8zm95.9 10.3c-1 0.2-1.9 0.2-3 0.2-1.9 0-4.3-0.3-6.4-1.5-3.2-1.6-5.8-4.7-5.8-8.9 0-6 5.3-10.5 12.4-10.5q1.5 0 2.8 0.2v4.2q-0.7-0.1-1.5-0.1c-4 0-7.3 2.7-7.3 6.1 0 3.4 3.3 6.1 7.3 6.1q0.8 0 1.5-0.1zm33-10.4c0 5.8-4.9 10.5-11 10.5-6.1 0-11-4.7-11-10.5 0-5.7 4.9-10.4 11-10.4 6.1 0 11 4.7 11 10.4zm-6.3 0c0-3.2-0.8-5.8-4.7-5.8-3.9 0-4.7 2.6-4.7 5.8 0 3.3 0.8 5.9 4.7 5.9 3.9 0 4.7-2.6 4.7-5.9z"/><path fill-rule="evenodd" class="b" d="m623 93.4c-1.5 0.1-2.9 0.4-3.8 0.7-1.4 0.6-2.2 1.3-2.3 3.8l0.1 11.7h-6.6v-12c0-5 4.1-8.7 10.9-8.7 0.7 0 1.7 0.1 1.7 0.1zm-20.4 16c-2.4 0.6-3.8 0.6-4.8 0.6-6.6 0-11-4.3-11-10.3 0-5.8 4.5-10.6 11-10.6 7.6 0 10.7 5.3 10.7 10.9v0.1c0 0.6 0 0.9 0 1.4h-15.6c0.6 2.5 2.7 4 5.2 4.1 1.3 0.1 2.3 0 4.5-0.6zm-9.7-11.4h9.9c-0.4-2.6-2.1-4.3-4.9-4.3-2.7 0-4.5 1.7-5 4.3zm2.1-11.3l4.5-6.9 5.4 2.2-5.2 4.7z"/><path class="m" d="m738.1 47.2h-29.5c-6.4 0-13 3.5-16 5.7-14.8 10.5-22 31.8-22 31.8 2.1-3.6 17.1-31.1 37.4-31.1h21.5c0 0 0.1 3.6-1.8 6 11.7-4 10.4-12.4 10.4-12.4z"/><path class="m" d="m712.3 61.8c0 0.7-0.1 2.7-1.1 4.4v0.1c9.6-0.9 14.2-3.8 16.4-6.6-3.7 1.2-8.6 2.1-15.3 2.1z"/><path class="b" d="m705.4 66.5c0 0-2.1 0-5.9-0.1-15.5-0.3-22.8 10.9-26.4 16.4 3.6-3.8 10.6-10.7 23.2-10.5 9.9 0.2 13.5-3 14.9-6.1-1.7 0.2-3.7 0.4-5.8 0.3z"/><path class="m" d="m720.1 81.9l-12.8 27.4h5.4l2.7-5.7 0.2-0.4h0.4 13.3 0.5l0.2 0.4 2.6 5.7h5.6l-12.7-27.4zm7.9 17.2h-1.2-8.3-1.2l0.5-1.1 4.2-8.9 0.7-1.4 0.6 1.4 4.2 8.9z"/><path class="m" d="m702.8 95.7l-1.6-0.6 1.5-0.8c2.6-1.3 3.7-3.1 3.7-5.6 0-4.2-3.6-6.8-9.6-6.8h-12.2v27.4h12.6c3.4 0 6.2-0.6 8.1-1.8q2.9-1.9 2.9-5.4c0-3.2-1.6-5.1-5.4-6.4zm-13-2.5v-6.8-0.8h0.7 5.3c4.6 0 4.9 3.2 4.9 4.1v0.1c0 1.3-0.5 4.2-5.3 4.2h-4.9-0.7zm12.7 8.1c0 2.7-2 4.3-5.3 4.3h-6.7-0.7v-0.8-7.1-0.7h0.7 6.5c4.7 0 5.5 2.6 5.5 4.2z"/></g></svg>